<?xml version="1.0" encoding="utf-8"?>
<!-- Generator: Adobe Illustrator 28.3.0, SVG Export Plug-In . SVG Version: 6.00 Build 0)  -->
<svg version="1.1" id="Layer_1" xmlns="http://www.w3.org/2000/svg" xmlns:xlink="http://www.w3.org/1999/xlink" x="0px" y="0px"
	 viewBox="0 0 360 38.9" style="enable-background:new 0 0 360 38.9;" xml:space="preserve">
<style type="text/css">
	.st0{fill:#4D4D4D;}
	.st1{fill:#F58220;}
	.st2{fill:#FFFFFF;}
</style>
<g>
	<path class="st0" d="M106,32.1c-3,2.9-7.2,4.4-12.5,4.4c-5.3,0-9.4-1.4-12.5-4.4c-3-2.9-4.5-6.9-4.5-12s1.5-9,4.6-11.8
		c3-2.8,7.2-4.2,12.5-4.2S103,5.6,106,8.4c3,2.8,4.6,6.7,4.6,11.8S109.1,29.2,106,32.1z M104.3,10c-2.6-2.4-6.2-3.6-10.8-3.6
		c-4.6,0-8.2,1.2-10.7,3.6c-2.6,2.4-3.8,5.8-3.8,10.1s1.3,7.8,3.9,10.3c2.6,2.5,6.2,3.8,10.7,3.8s8.2-1.3,10.8-3.8
		c2.6-2.6,3.9-6,3.9-10.4S106.9,12.4,104.3,10z"/>
	<path class="st0" d="M131.8,36.2V21.1c0.1-1.8-0.6-3.6-2-4.8c-1.5-1.1-3.4-1.7-5.3-1.6c-2.3-0.1-4.6,0.7-6.3,2.4
		c-1.6,1.6-2.4,3.9-2.3,6.1v13h-2.4V13h2.4v3.2c1.8-2.5,4.7-3.7,8.6-3.7c2.4-0.1,4.9,0.6,6.9,2c1.9,1.5,3,3.8,2.9,6.2v15.6H131.8z"
		/>
	<path class="st0" d="M139.2,25.5c0.3,6,3.5,9,9.5,9c4.6,0,7.6-1.9,9.1-5.6h2.5c-0.7,2.6-2.4,4.9-4.7,6.3c-2.1,1.1-4.5,1.7-6.9,1.6
		c-3.9,0-6.9-1.1-8.9-3.4c-1.9-2.1-2.9-5-2.9-8.7c-0.2-3.3,1-6.4,3.3-8.8c2.3-2.3,5.5-3.5,8.8-3.4c3.2-0.2,6.3,0.9,8.7,3.1
		c2.2,2.1,3.4,5.1,3.3,8.2v1.7L139.2,25.5z M148.9,14.7c-2.4-0.1-4.8,0.7-6.6,2.3c-1.8,1.6-2.9,3.9-3,6.3h18.9c0-2.4-1-4.6-2.8-6.3
		C153.6,15.4,151.3,14.6,148.9,14.7z"/>
	<path class="st0" d="M191.8,11.2c-2.4-3.5-6.3-5.2-11.6-5.2c-4.6,0-8.2,1.3-10.9,3.8c-2.7,2.5-4,6-4,10.4c0,4.3,1.3,7.7,3.8,10.3
		c2.5,2.6,6.1,3.8,10.5,3.8c5.1,0,9-1.8,11.7-5.3l2.1,1.3c-3.2,4.1-7.7,6.2-13.7,6.2c-5.2,0-9.3-1.5-12.3-4.4
		c-3-2.9-4.6-6.8-4.6-11.8s1.6-9.1,4.7-12.1s7.3-4.5,12.6-4.5c6.2,0,10.7,2.1,13.6,6.2L191.8,11.2z"/>
	<path class="st0" d="M197.3,36.2V4.1h2.4v32.1H197.3z"/>
	<path class="st0" d="M204.9,8.8c-0.5,0-0.9-0.3-1.1-1V4.6c0.3-0.6,0.7-1,1.1-1c0.4,0,0.8,0.3,1.3,0.8V8
		C205.9,8.5,205.4,8.8,204.9,8.8z M203.7,36.2V12.7h2.4v23.5H203.7z"/>
	<path class="st0" d="M227.9,35c-2.1,1.2-4.4,1.8-6.8,1.8c-3.7,0-6.7-1.1-8.9-3.2c-2.2-2.3-3.4-5.3-3.3-8.5c-0.1-3.3,1.1-6.6,3.3-9
		c2.2-2.3,5.3-3.5,9.3-3.5c2.2-0.1,4.4,0.5,6.3,1.6c2,1.3,3.5,3.2,4,5.6l-2.2,1.1c-1.1-4-3.8-6.1-8.1-6.1c-3.2,0-5.7,1-7.5,2.9
		c-1.8,2-2.8,4.7-2.7,7.4c-0.1,2.6,0.8,5.1,2.6,6.9c1.9,1.8,4.5,2.7,7.1,2.6c1.9,0.1,3.9-0.4,5.5-1.4c1.8-1.2,2.9-3.1,3.2-5.2l2.3,1
		C231.6,31.3,230.1,33.6,227.9,35z"/>
	<path class="st0" d="M255,36.2l-12.2-12.9l-5.4,3.7v9.2H235V4.1h2.4v20.2l16.3-11.6l4.3,0.1l-13.3,9.2l13.5,14.3L255,36.2z"/>
	<path class="st1" d="M271.4,36.2h-11.1V4.1h12.9c5.3,0,9.3,1.4,12,4.3c2.6,2.8,3.9,6.7,3.9,11.8c0,5.2-1.7,9.3-5,12.1
		C281,34.9,276.7,36.2,271.4,36.2z M283.4,10c-2.3-2.4-5.7-3.7-10.3-3.7h-10.5v27.6h8.9c4.8,0,8.5-1.2,11.2-3.5s4-5.8,4-10.3
		C286.7,15.7,285.6,12.3,283.4,10z"/>
	<path class="st1" d="M297,18.5c-1.5,2.5-2.2,5.5-2.1,8.4v9.3h-2.4V13h2.4v3.9c0.5-0.7,1.1-1.4,1.8-1.9c2.4-1.8,5.3-2.7,8.3-2.5v2.2
		C301.3,14.7,298.6,16,297,18.5z"/>
	<path class="st1" d="M308.7,8.8c-0.5,0-0.9-0.3-1.1-1V4.6c0.3-0.6,0.7-1,1.1-1c0.4,0,0.8,0.3,1.3,0.8V8
		C309.7,8.5,309.2,8.8,308.7,8.8z M307.6,36.2V12.7h2.4v23.5H307.6z"/>
	<path class="st1" d="M324.7,36.2h-2.2l-11.2-23.1h2.8l9.4,20l8.8-20h2.6L324.7,36.2z"/>
	<path class="st1" d="M337.2,25.5c0.3,6,3.5,9,9.5,9c4.6,0,7.6-1.9,9-5.6h2.5c-0.7,2.6-2.4,4.9-4.7,6.3c-2.1,1.1-4.5,1.7-6.9,1.6
		c-3.9,0-6.9-1.1-8.9-3.4c-1.9-2.1-2.9-5-2.9-8.7c-0.1-3.3,1-6.4,3.3-8.8c2.3-2.3,5.5-3.5,8.8-3.4c3.2-0.2,6.3,0.9,8.7,3.1
		c2.2,2.1,3.4,5.1,3.3,8.2v1.7L337.2,25.5z M346.8,14.7c-2.4-0.1-4.7,0.7-6.6,2.3c-1.8,1.6-2.9,3.9-3,6.3h18.9c0-2.4-1-4.6-2.8-6.3
		C351.6,15.4,349.2,14.6,346.8,14.7z"/>
	<g>
		<path class="st0" d="M50.3,1.9H19.7C9.5,1.9,1.2,10.1,1.2,20.4s8.3,18.5,18.5,18.5h30.7c10.2,0,18.5-8.3,18.5-18.5
			S60.6,1.9,50.3,1.9L50.3,1.9z"/>
		<path class="st0" d="M19.7,13.3c-3.9,0-7.1,3.2-7.1,7.1s3.2,7.1,7.1,7.1c3.9,0,7.1-3.2,7.1-7.1C26.8,16.5,23.6,13.3,19.7,13.3z"/>
		<path class="st2" d="M39.4,13.3h4.5V7.7h-4.5c-3.8,0-7.5,1.8-9.9,4.8c-4.4-5.5-12.3-6.4-17.8-2s-6.4,12.3-2,17.8s12.3,6.4,17.8,2
			c0.7-0.6,1.4-1.3,2-2c2.4,3,6,4.8,9.9,4.8h4.5v-5.6h-4.5c-3.9-0.2-6.9-3.5-6.7-7.5C32.9,16.4,35.8,13.5,39.4,13.3z M19.7,27.5
			c-3.9,0-7.1-3.2-7.1-7.1s3.2-7.1,7.1-7.1c3.9,0,7.1,3.2,7.1,7.1C26.8,24.3,23.6,27.5,19.7,27.5L19.7,27.5z"/>
		<path class="st1" d="M50.3,33h-4.5v-5.6h4.5c3.9,0,7.1-3.2,7.1-7.1c0-3.9-3.2-7.1-7.1-7.1h-4.5V7.7h4.5c7-0.2,12.8,5.3,13,12.3
			C63.5,27,58,32.8,51,33C50.8,33,50.6,33,50.3,33z"/>
	</g>
</g>
</svg>
